<svg width="41" height="41" viewBox="0 0 41 41" fill="none" xmlns="http://www.w3.org/2000/svg">
<path d="M6.40625 16.9766V35.875C6.40625 36.2148 6.54124 36.5407 6.78152 36.781C7.0218 37.0213 7.34769 37.1562 7.6875 37.1562H15.375V26.2656C15.375 25.7559 15.5775 25.2671 15.9379 24.9067C16.2983 24.5462 16.7872 24.3438 17.2969 24.3438H23.7031C24.2128 24.3438 24.7017 24.5462 25.0621 24.9067C25.4225 25.2671 25.625 25.7559 25.625 26.2656V37.1562H33.3125C33.6523 37.1562 33.9782 37.0213 34.2185 36.781C34.4588 36.5407 34.5938 36.2148 34.5938 35.875V16.9766" stroke="white" stroke-width="3" stroke-linecap="round" stroke-linejoin="round"/>
<path d="M38.4375 20.5L21.3721 4.16407C20.9717 3.74125 20.0355 3.73645 19.6279 4.16407L2.5625 20.5M32.0312 14.334V5.12501H28.1875V10.6504" stroke="white" stroke-width="3" stroke-linecap="round" stroke-linejoin="round"/>
</svg>
