<svg width="21" height="21" viewBox="0 0 21 21" fill="none" xmlns="http://www.w3.org/2000/svg">
<path d="M3.88506 3.885C4.0068 3.76309 4.15138 3.66637 4.31053 3.60038C4.46967 3.53439 4.64027 3.50043 4.81256 3.50043C4.98485 3.50043 5.15544 3.53439 5.31459 3.60038C5.47374 3.66637 5.61832 3.76309 5.74006 3.885L10.5001 8.64325L15.2601 3.885C15.3819 3.7632 15.5265 3.66658 15.6856 3.60066C15.8447 3.53474 16.0153 3.50081 16.1876 3.50081C16.3598 3.50081 16.5304 3.53474 16.6895 3.60066C16.8487 3.66658 16.9933 3.7632 17.1151 3.885C17.2369 4.0068 17.3335 4.1514 17.3994 4.31054C17.4653 4.46968 17.4992 4.64024 17.4992 4.8125C17.4992 4.98475 17.4653 5.15532 17.3994 5.31446C17.3335 5.4736 17.2369 5.6182 17.1151 5.74L12.3568 10.5L17.1151 15.26C17.361 15.506 17.4992 15.8396 17.4992 16.1875C17.4992 16.5354 17.361 16.869 17.1151 17.115C16.8691 17.361 16.5354 17.4992 16.1876 17.4992C15.8397 17.4992 15.506 17.361 15.2601 17.115L10.5001 12.3567L5.74006 17.115C5.49407 17.361 5.16044 17.4992 4.81256 17.4992C4.46468 17.4992 4.13105 17.361 3.88506 17.115C3.63907 16.869 3.50088 16.5354 3.50088 16.1875C3.50088 15.8396 3.63907 15.506 3.88506 15.26L8.64331 10.5L3.88506 5.74C3.76315 5.61826 3.66643 5.47368 3.60044 5.31453C3.53445 5.15538 3.50049 4.98478 3.50049 4.8125C3.50049 4.64021 3.53445 4.46961 3.60044 4.31046C3.66643 4.15131 3.76315 4.00674 3.88506 3.885Z" fill="black"/>
</svg>
