<svg width="40" height="40" viewBox="0 0 40 40" fill="none" xmlns="http://www.w3.org/2000/svg">
<path d="M36.9328 21.7812C36.6923 21.5402 36.3907 21.3693 36.0603 21.2867C35.73 21.2041 35.3834 21.213 35.0578 21.3125C32.783 21.9992 30.3645 22.0561 28.0599 21.4769C25.7554 20.8978 23.6511 19.7044 21.9711 18.0238C20.2912 16.3433 19.0986 14.2385 18.5204 11.9337C17.9421 9.62896 17.9999 7.21048 18.6875 4.93593C18.7878 4.61016 18.7974 4.2632 18.7153 3.93237C18.6331 3.60154 18.4624 3.29936 18.2213 3.05833C17.9803 2.8173 17.6781 2.64653 17.3473 2.5644C17.0165 2.48227 16.6695 2.49187 16.3437 2.59218C12.9225 3.64374 9.92012 5.74774 7.76405 8.60468C5.87858 11.1108 4.72878 14.0927 4.44367 17.2158C4.15855 20.339 4.7494 23.4798 6.14992 26.2859C7.55043 29.092 9.7052 31.4522 12.3724 33.1019C15.0397 34.7515 18.1138 35.6252 21.25 35.625C24.9115 35.6357 28.4754 34.4452 31.3953 32.2359C34.2507 30.0777 36.3525 27.0737 37.4015 23.6516C37.5001 23.3266 37.5086 22.9809 37.426 22.6515C37.3434 22.3221 37.173 22.0213 36.9328 21.7812ZM29.139 29.2406C26.6117 31.1432 23.4822 32.069 20.3265 31.8476C17.1708 31.6262 14.2013 30.2725 11.9644 28.0356C9.72752 25.7987 8.3738 22.8291 8.15238 19.6734C7.93096 16.5178 8.85675 13.3883 10.7594 10.8609C11.7605 9.53666 13.0012 8.41199 14.4172 7.54531C14.389 7.94531 14.375 8.34687 14.375 8.75C14.3799 13.224 16.1594 17.5133 19.323 20.6769C22.4866 23.8405 26.776 25.62 31.25 25.625C31.6531 25.625 32.0547 25.6109 32.4547 25.5828C31.5884 26.9991 30.4637 28.2399 29.139 29.2406Z" fill="white"/>
</svg>
