<svg width="40" height="40" viewBox="0 0 40 40" fill="none" xmlns="http://www.w3.org/2000/svg">
<g clip-path="url(#clip0_11_31)">
<path d="M18.125 5V2.5C18.125 2.00272 18.3225 1.52581 18.6742 1.17417C19.0258 0.822544 19.5027 0.625 20 0.625C20.4973 0.625 20.9742 0.822544 21.3258 1.17417C21.6775 1.52581 21.875 2.00272 21.875 2.5V5C21.875 5.49728 21.6775 5.97419 21.3258 6.32583C20.9742 6.67746 20.4973 6.875 20 6.875C19.5027 6.875 19.0258 6.67746 18.6742 6.32583C18.3225 5.97419 18.125 5.49728 18.125 5ZM30.625 20C30.625 22.1014 30.0019 24.1557 28.8344 25.9029C27.6669 27.6502 26.0075 29.012 24.066 29.8162C22.1245 30.6204 19.9882 30.8308 17.9272 30.4208C15.8661 30.0109 13.9729 28.9989 12.487 27.513C11.0011 26.0271 9.98912 24.1339 9.57916 22.0728C9.16919 20.0118 9.3796 17.8755 10.1838 15.934C10.988 13.9925 12.3498 12.3331 14.0971 11.1656C15.8443 9.99815 17.8986 9.375 20 9.375C22.817 9.3779 25.5179 10.4982 27.5098 12.4902C29.5018 14.4821 30.6221 17.183 30.625 20ZM26.875 20C26.875 18.6403 26.4718 17.311 25.7164 16.1805C24.9609 15.0499 23.8872 14.1687 22.6309 13.6483C21.3747 13.128 19.9924 12.9918 18.6588 13.2571C17.3251 13.5224 16.1001 14.1772 15.1386 15.1386C14.1772 16.1001 13.5224 17.3251 13.2571 18.6588C12.9918 19.9924 13.128 21.3747 13.6483 22.6309C14.1687 23.8872 15.0499 24.9609 16.1805 25.7164C17.311 26.4718 18.6403 26.875 20 26.875C21.8227 26.8729 23.5702 26.1479 24.8591 24.8591C26.1479 23.5702 26.8729 21.8227 26.875 20ZM8.04844 10.7016C8.22285 10.876 8.42991 11.0143 8.65779 11.1087C8.88567 11.2031 9.12991 11.2517 9.37656 11.2517C9.62322 11.2517 9.86746 11.2031 10.0953 11.1087C10.3232 11.0143 10.5303 10.876 10.7047 10.7016C10.8791 10.5272 11.0175 10.3201 11.1118 10.0922C11.2062 9.86433 11.2548 9.62009 11.2548 9.37344C11.2548 9.12678 11.2062 8.88254 11.1118 8.65466C11.0175 8.42678 10.8791 8.21972 10.7047 8.04531L8.82969 6.17031C8.47745 5.81807 7.99971 5.62019 7.50156 5.62019C7.00342 5.62019 6.52568 5.81807 6.17344 6.17031C5.8212 6.52255 5.62331 7.00029 5.62331 7.49844C5.62331 7.99658 5.8212 8.47432 6.17344 8.82656L8.04844 10.7016ZM8.04844 29.2953L6.17344 31.1703C5.99903 31.3447 5.86067 31.5518 5.76628 31.7797C5.67189 32.0075 5.62331 32.2518 5.62331 32.4984C5.62331 32.7451 5.67189 32.9893 5.76628 33.2172C5.86067 33.4451 5.99903 33.6522 6.17344 33.8266C6.52568 34.1788 7.00342 34.3767 7.50156 34.3767C7.74822 34.3767 7.99246 34.3281 8.22034 34.2337C8.44822 34.1393 8.65528 34.001 8.82969 33.8266L10.7047 31.9516C11.0569 31.5993 11.2548 31.1216 11.2548 30.6234C11.2548 30.1253 11.0569 29.6476 10.7047 29.2953C10.3524 28.9431 9.87471 28.7452 9.37656 28.7452C8.87842 28.7452 8.40068 28.9431 8.04844 29.2953ZM30.625 11.25C30.8713 11.2502 31.1152 11.2019 31.3428 11.1078C31.5705 11.0137 31.7773 10.8756 31.9516 10.7016L33.8266 8.82656C34.001 8.65215 34.1393 8.44509 34.2337 8.21721C34.3281 7.98933 34.3767 7.74509 34.3767 7.49844C34.3767 7.25178 34.3281 7.00754 34.2337 6.77966C34.1393 6.55178 34.001 6.34472 33.8266 6.17031C33.6522 5.9959 33.4451 5.85755 33.2172 5.76316C32.9893 5.66877 32.7451 5.62019 32.4984 5.62019C32.2518 5.62019 32.0075 5.66877 31.7797 5.76316C31.5518 5.85755 31.3447 5.9959 31.1703 6.17031L29.2953 8.04531C29.0315 8.30756 28.8517 8.64235 28.7787 9.00708C28.7057 9.37182 28.7429 9.75002 28.8854 10.0936C29.028 10.4372 29.2695 10.7306 29.5792 10.9365C29.889 11.1424 30.253 11.2515 30.625 11.25ZM31.9516 29.2984C31.5993 28.9462 31.1216 28.7483 30.6234 28.7483C30.1253 28.7483 29.6476 28.9462 29.2953 29.2984C28.9431 29.6507 28.7452 30.1284 28.7452 30.6266C28.7452 31.1247 28.9431 31.6024 29.2953 31.9547L31.1703 33.8297C31.5226 34.1819 32.0003 34.3798 32.4984 34.3798C32.9966 34.3798 33.4743 34.1819 33.8266 33.8297C34.1788 33.4774 34.3767 32.9997 34.3767 32.5016C34.3767 32.0034 34.1788 31.5257 33.8266 31.1734L31.9516 29.2984ZM6.875 20C6.875 19.5027 6.67746 19.0258 6.32583 18.6742C5.97419 18.3225 5.49728 18.125 5 18.125H2.5C2.00272 18.125 1.52581 18.3225 1.17417 18.6742C0.822544 19.0258 0.625 19.5027 0.625 20C0.625 20.4973 0.822544 20.9742 1.17417 21.3258C1.52581 21.6775 2.00272 21.875 2.5 21.875H5C5.49728 21.875 5.97419 21.6775 6.32583 21.3258C6.67746 20.9742 6.875 20.4973 6.875 20ZM20 33.125C19.5027 33.125 19.0258 33.3225 18.6742 33.6742C18.3225 34.0258 18.125 34.5027 18.125 35V37.5C18.125 37.9973 18.3225 38.4742 18.6742 38.8258C19.0258 39.1775 19.5027 39.375 20 39.375C20.4973 39.375 20.9742 39.1775 21.3258 38.8258C21.6775 38.4742 21.875 37.9973 21.875 37.5V35C21.875 34.5027 21.6775 34.0258 21.3258 33.6742C20.9742 33.3225 20.4973 33.125 20 33.125ZM37.5 18.125H35C34.5027 18.125 34.0258 18.3225 33.6742 18.6742C33.3225 19.0258 33.125 19.5027 33.125 20C33.125 20.4973 33.3225 20.9742 33.6742 21.3258C34.0258 21.6775 34.5027 21.875 35 21.875H37.5C37.9973 21.875 38.4742 21.6775 38.8258 21.3258C39.1775 20.9742 39.375 20.4973 39.375 20C39.375 19.5027 39.1775 19.0258 38.8258 18.6742C38.4742 18.3225 37.9973 18.125 37.5 18.125Z" fill="black"/>
</g>
<defs>
<clipPath id="clip0_11_31">
<rect width="40" height="40" fill="white"/>
</clipPath>
</defs>
</svg>
